<svg width="25" height="24" viewBox="0 0 25 24" fill="none" xmlns="http://www.w3.org/2000/svg">
<path d="M22.61 16.4508H8.53218L9.23903 15.0234L20.9835 15.0023C21.3807 15.0023 21.7211 14.7211 21.792 14.332L23.4185 5.30625C23.461 5.06953 23.3972 4.82578 23.2412 4.64062C23.1641 4.5495 23.0679 4.4761 22.9593 4.42551C22.8507 4.37492 22.7323 4.34835 22.6123 4.34766L7.67168 4.29844L7.54402 3.70312C7.46364 3.32344 7.11849 3.04688 6.72606 3.04688H3.07364C2.85231 3.04688 2.64006 3.13404 2.48356 3.2892C2.32706 3.44436 2.23914 3.65479 2.23914 3.87422C2.23914 4.09364 2.32706 4.30408 2.48356 4.45924C2.64006 4.6144 2.85231 4.70156 3.07364 4.70156H6.04995L6.60786 7.33125L7.98136 13.9242L6.21307 16.7859C6.12124 16.9088 6.06593 17.0547 6.05339 17.2071C6.04086 17.3596 6.07161 17.5124 6.14215 17.6484C6.28399 17.9273 6.57004 18.1031 6.88682 18.1031H8.37143C8.05493 18.5199 7.88397 19.0275 7.88444 19.5492C7.88444 20.8758 8.97189 21.9539 10.3099 21.9539C11.648 21.9539 12.7354 20.8758 12.7354 19.5492C12.7354 19.0266 12.5605 18.518 12.2484 18.1031H16.0569C15.7404 18.5199 15.5694 19.0275 15.5699 19.5492C15.5699 20.8758 16.6574 21.9539 17.9954 21.9539C19.3334 21.9539 20.4209 20.8758 20.4209 19.5492C20.4209 19.0266 20.2459 18.518 19.9339 18.1031H22.6123C23.071 18.1031 23.4468 17.7328 23.4468 17.2758C23.4455 17.0566 23.3567 16.8468 23.1999 16.6923C23.0431 16.5377 22.8311 16.4509 22.61 16.4508ZM8.01919 5.92969L21.6313 5.97422L20.298 13.3758L9.60545 13.3945L8.01919 5.92969ZM10.3099 20.2898C9.89859 20.2898 9.5629 19.957 9.5629 19.5492C9.5629 19.1414 9.89859 18.8086 10.3099 18.8086C10.7213 18.8086 11.057 19.1414 11.057 19.5492C11.057 19.7456 10.9783 19.934 10.8382 20.0729C10.6981 20.2118 10.5081 20.2898 10.3099 20.2898ZM17.9954 20.2898C17.5841 20.2898 17.2484 19.957 17.2484 19.5492C17.2484 19.1414 17.5841 18.8086 17.9954 18.8086C18.4067 18.8086 18.7424 19.1414 18.7424 19.5492C18.7424 19.7456 18.6637 19.934 18.5236 20.0729C18.3835 20.2118 18.1935 20.2898 17.9954 20.2898Z" fill="black"/>
</svg>
