<svg width="21" height="16" viewBox="0 0 21 16" fill="none" xmlns="http://www.w3.org/2000/svg">
<path d="M18.1731 8V3H20.1904V9H18.1731M18.1731 13H20.1904V11H18.1731M8.08656 9C10.7797 9 16.1558 10.34 16.1558 13V16H0.017334V13C0.017334 10.34 5.39345 9 8.08656 9ZM8.08656 0C9.1566 0 10.1828 0.421427 10.9395 1.17157C11.6961 1.92172 12.1212 2.93913 12.1212 4C12.1212 5.06087 11.6961 6.07828 10.9395 6.82843C10.1828 7.57857 9.1566 8 8.08656 8C7.01651 8 5.99029 7.57857 5.23365 6.82843C4.47702 6.07828 4.05194 5.06087 4.05194 4C4.05194 2.93913 4.47702 1.92172 5.23365 1.17157C5.99029 0.421427 7.01651 0 8.08656 0ZM8.08656 10.9C5.09086 10.9 1.93377 12.36 1.93377 13V14.1H14.2393V13C14.2393 12.36 11.0823 10.9 8.08656 10.9ZM8.08656 1.9C7.52478 1.9 6.98602 2.12125 6.58878 2.51508C6.19155 2.9089 5.96838 3.44305 5.96838 4C5.96838 4.55695 6.19155 5.0911 6.58878 5.48492C6.98602 5.87875 7.52478 6.1 8.08656 6.1C8.64833 6.1 9.18709 5.87875 9.58433 5.48492C9.98156 5.0911 10.2047 4.55695 10.2047 4C10.2047 3.44305 9.98156 2.9089 9.58433 2.51508C9.18709 2.12125 8.64833 1.9 8.08656 1.9Z" fill="black"/>
</svg>
